<svg width="26" height="26" viewBox="0 0 26 26" fill="none" xmlns="http://www.w3.org/2000/svg">
<path d="M12.8877 0.896484C5.99532 0.896484 0.387695 6.50411 0.387695 13.3965C0.387695 20.2889 5.99532 25.8965 12.8877 25.8965C19.7801 25.8965 25.3877 20.2889 25.3877 13.3965C25.3877 6.50411 19.7801 0.896484 12.8877 0.896484ZM12.8877 24.334C6.85665 24.334 1.9502 19.4275 1.9502 13.3965C1.9502 7.36544 6.85665 2.45899 12.8877 2.45899C18.9187 2.45899 23.8252 7.36544 23.8252 13.3965C23.8252 19.4275 18.9187 24.334 12.8877 24.334Z" fill="#0A66C2"/>
<path d="M13.669 5.58398H12.1064V13.72L17.0228 18.6363L18.1276 17.5316L13.669 13.073V5.58398Z" fill="#0A66C2"/>
</svg>
