<svg width="34" height="23" viewBox="0 0 34 23" fill="none" xmlns="http://www.w3.org/2000/svg">
<g clip-path="url(#clip0_920_78800)">
<path d="M26.6824 13.1461H7.04738C6.06734 13.1461 5.41113 12.4872 5.41113 11.5032C5.41113 10.5192 6.06734 9.86035 7.04738 9.86035H26.6824C27.6624 9.86035 28.3186 10.5192 28.3186 11.5032C28.3186 12.4872 27.6624 13.1461 26.6824 13.1461Z" fill="#0A66C2"/>
<path d="M21.7731 23.0025H11.9556C10.9755 23.0025 10.3193 22.3437 10.3193 21.3597C10.3193 20.3756 10.9755 19.7168 11.9556 19.7168H21.7731C22.7531 19.7168 23.4093 20.3756 23.4093 21.3597C23.4093 22.3437 22.7531 23.0025 21.7731 23.0025Z" fill="#0A66C2"/>
<path d="M31.5907 3.28864H2.1382C1.15816 3.28864 0.501953 2.62979 0.501953 1.64579C0.501953 0.661784 1.15816 0.00292969 2.1382 0.00292969H31.5907C32.5707 0.00292969 33.2269 0.661784 33.2269 1.64579C33.2269 2.62979 32.5707 3.28864 31.5907 3.28864Z" fill="#0A66C2"/>
</g>
<defs>
<clipPath id="clip0_920_78800">
<rect width="32.725" height="23" fill="white" transform="translate(0.501953 0.00292969)"/>
</clipPath>
</defs>
</svg>
