<svg width="25" height="25" viewBox="0 0 25 25" fill="none" xmlns="http://www.w3.org/2000/svg">
<path d="M2.51116 11.5079H9.20759C9.87336 11.5072 10.5116 11.2472 10.9824 10.7848C11.4532 10.3225 11.718 9.69574 11.7188 9.04195V2.46599C11.718 1.81219 11.4532 1.18539 10.9824 0.723088C10.5116 0.260786 9.87336 0.000739709 9.20759 0H2.51116C1.84539 0.000739709 1.2071 0.260786 0.736334 0.723088C0.265563 1.18539 0.00075326 1.81219 0 2.46599V9.04195C0.00075326 9.69574 0.265563 10.3225 0.736334 10.7848C1.2071 11.2472 1.84539 11.5072 2.51116 11.5079ZM1.67411 2.46599C1.67411 2.24798 1.7623 2.0389 1.91927 1.88475C2.07625 1.73059 2.28916 1.64399 2.51116 1.64399H9.20759C9.42959 1.64399 9.6425 1.73059 9.79948 1.88475C9.95645 2.0389 10.0446 2.24798 10.0446 2.46599V9.04195C10.0446 9.25996 9.95645 9.46903 9.79948 9.62319C9.6425 9.77734 9.42959 9.86395 9.20759 9.86395H2.51116C2.28916 9.86395 2.07625 9.77734 1.91927 9.62319C1.7623 9.46903 1.67411 9.25996 1.67411 9.04195V2.46599Z" fill="#0A66C2"/>
<path d="M2.51116 25.0001H9.20759C9.87336 24.9994 10.5116 24.7393 10.9824 24.277C11.4532 23.8147 11.718 23.1879 11.7188 22.5341V15.9582C11.718 15.3044 11.4532 14.6776 10.9824 14.2153C10.5116 13.753 9.87336 13.4929 9.20759 13.4922H2.51116C1.84539 13.4929 1.2071 13.753 0.736334 14.2153C0.265563 14.6776 0.00075326 15.3044 0 15.9582V22.5341C0.00075326 23.1879 0.265563 23.8147 0.736334 24.277C1.2071 24.7393 1.84539 24.9994 2.51116 25.0001ZM1.67411 15.9582C1.67411 15.7402 1.7623 15.5311 1.91927 15.3769C2.07625 15.2228 2.28916 15.1362 2.51116 15.1362H9.20759C9.42959 15.1362 9.6425 15.2228 9.79948 15.3769C9.95645 15.5311 10.0446 15.7402 10.0446 15.9582V22.5341C10.0446 22.7521 9.95645 22.9612 9.79948 23.1154C9.6425 23.2695 9.42959 23.3561 9.20759 23.3561H2.51116C2.28916 23.3561 2.07625 23.2695 1.91927 23.1154C1.7623 22.9612 1.67411 22.7521 1.67411 22.5341V15.9582Z" fill="#0A66C2"/>
<path d="M22.4888 0H15.7924C15.1266 0.000739709 14.4884 0.260786 14.0176 0.723088C13.5468 1.18539 13.282 1.81219 13.2812 2.46599V9.04195C13.282 9.69574 13.5468 10.3225 14.0176 10.7848C14.4884 11.2472 15.1266 11.5072 15.7924 11.5079H22.4888C23.1546 11.5072 23.7929 11.2472 24.2637 10.7848C24.7344 10.3225 24.9992 9.69574 25 9.04195V2.46599C24.9992 1.81219 24.7344 1.18539 24.2637 0.723088C23.7929 0.260786 23.1546 0.000739709 22.4888 0ZM23.3259 9.04195C23.3259 9.25996 23.2377 9.46903 23.0807 9.62319C22.9237 9.77734 22.7108 9.86395 22.4888 9.86395H15.7924C15.5704 9.86395 15.3575 9.77734 15.2005 9.62319C15.0435 9.46903 14.9554 9.25996 14.9554 9.04195V2.46599C14.9554 2.24798 15.0435 2.0389 15.2005 1.88475C15.3575 1.73059 15.5704 1.64399 15.7924 1.64399H22.4888C22.7108 1.64399 22.9237 1.73059 23.0807 1.88475C23.2377 2.0389 23.3259 2.24798 23.3259 2.46599V9.04195Z" fill="#0A66C2"/>
<path d="M19.1406 13.4922C17.9818 13.4922 16.8489 13.8297 15.8853 14.4619C14.9218 15.0942 14.1708 15.9928 13.7273 17.0442C13.2838 18.0956 13.1678 19.2525 13.3938 20.3687C13.6199 21.4849 14.178 22.5101 14.9974 23.3148C15.8169 24.1195 16.8609 24.6675 17.9975 24.8896C19.1341 25.1116 20.3123 24.9976 21.3829 24.5621C22.4536 24.1266 23.3687 23.3891 24.0125 22.4429C24.6564 21.4967 25 20.3842 25 19.2462C24.9981 17.7207 24.3802 16.2582 23.2818 15.1795C22.1833 14.1008 20.6941 13.494 19.1406 13.4922ZM19.1406 23.3561C18.3129 23.3561 17.5037 23.1151 16.8154 22.6635C16.1272 22.2119 15.5907 21.57 15.2739 20.819C14.9572 20.068 14.8743 19.2416 15.0358 18.4443C15.1973 17.6471 15.5959 16.9148 16.1812 16.34C16.7665 15.7652 17.5123 15.3737 18.3241 15.2151C19.136 15.0566 19.9775 15.138 20.7423 15.449C21.507 15.7601 22.1607 16.2869 22.6205 16.9628C23.0804 17.6387 23.3259 18.4333 23.3259 19.2462C23.3246 20.3358 22.8832 21.3804 22.0986 22.1509C21.314 22.9214 20.2502 23.3548 19.1406 23.3561Z" fill="#0A66C2"/>
</svg>
