<svg width="59" height="81" viewBox="0 0 59 81" fill="none" xmlns="http://www.w3.org/2000/svg">
<path d="M56.2345 80.1872H2.76512C1.48431 80.1872 0.456055 79.1409 0.456055 77.8782V3.12206C0.456055 1.85928 1.50235 0.812988 2.76512 0.812988H46.9982C47.2327 0.812988 47.4673 0.903186 47.6296 1.08358L58.273 11.7269C58.4353 11.8893 58.5436 12.1238 58.5436 12.3583V77.8782C58.5436 79.1409 57.4973 80.1872 56.2345 80.1872ZM2.76512 2.61695C2.47649 2.61695 2.26001 2.85146 2.26001 3.12206V77.8601C2.26001 78.1488 2.49453 78.3652 2.76512 78.3652H56.2165C56.5051 78.3652 56.7216 78.1307 56.7216 77.8601V12.7372L46.6194 2.61695H2.76512Z" fill="#091316"/>
<path d="M57.642 13.2603H48.3877C47.1249 13.2603 46.0967 12.2321 46.0967 10.9693V1.71497C46.0967 1.20986 46.4936 0.812988 46.9987 0.812988C47.5038 0.812988 47.9006 1.20986 47.9006 1.71497V10.9693C47.9006 11.2399 48.1171 11.4564 48.3877 11.4564H57.642C58.1471 11.4564 58.544 11.8532 58.544 12.3583C58.544 12.8634 58.1471 13.2603 57.642 13.2603Z" fill="#091316"/>
<path d="M41.4776 37.3789H17.5391C16.0778 37.3789 14.9053 36.1883 14.9053 34.7451V18.9605C14.9053 17.5173 16.0778 16.3447 17.521 16.3447H41.5137C42.9569 16.3447 44.1294 17.5173 44.1294 18.9605V34.7451C44.1114 36.1883 42.9208 37.3789 41.4776 37.3789ZM17.503 18.1487C17.052 18.1487 16.6912 18.5095 16.6912 18.9605V34.7271C16.6912 35.1961 17.07 35.5569 17.521 35.5569H41.4596C41.9286 35.5569 42.2894 35.1781 42.2894 34.7271V18.9424C42.2894 18.4914 41.9286 18.1306 41.4776 18.1306L17.503 18.1487Z" fill="#0A66C2"/>
<path d="M34.8397 18.1489C34.3346 18.1489 33.9377 17.752 33.9377 17.2469V11.7087H25.0442V17.2469C25.0442 17.752 24.6473 18.1489 24.1422 18.1489C23.6371 18.1489 23.2402 17.752 23.2402 17.2469V11.7087C23.2402 10.7166 24.052 9.90479 25.0442 9.90479H33.9377C34.9299 9.90479 35.7417 10.7166 35.7417 11.7087V17.2469C35.7417 17.752 35.3448 18.1489 34.8397 18.1489Z" fill="#0A66C2"/>
<path d="M43.2099 24.9319H15.7897C15.2846 24.9319 14.8877 24.535 14.8877 24.0299C14.8877 23.5248 15.2846 23.1279 15.7897 23.1279H43.2099C43.715 23.1279 44.1119 23.5248 44.1119 24.0299C44.1119 24.535 43.715 24.9319 43.2099 24.9319Z" fill="#0A66C2"/>
<path d="M29.5 30.5963C27.5157 30.5963 25.9102 28.9908 25.9102 27.0064V24.0299C25.9102 23.5248 26.307 23.1279 26.8121 23.1279C27.3172 23.1279 27.7141 23.5248 27.7141 24.0299V27.0064C27.7141 27.9986 28.5259 28.7924 29.5 28.7924C30.4922 28.7924 31.286 27.9806 31.286 27.0064V24.0299C31.286 23.5248 31.6828 23.1279 32.1879 23.1279C32.693 23.1279 33.0899 23.5248 33.0899 24.0299V27.0064C33.0899 28.9908 31.4844 30.5963 29.5 30.5963Z" fill="#0A66C2"/>
<path d="M11.3877 50.7467C11.1532 50.7467 10.9187 50.6565 10.7563 50.4761L8.95238 48.6721C8.60962 48.3113 8.60962 47.7521 8.95238 47.3913C9.29513 47.0305 9.8724 47.0305 10.2332 47.3913L11.3877 48.5458L15.7533 44.1803C16.0961 43.8195 16.6733 43.8195 17.0341 44.1803C17.3769 44.5411 17.3769 45.1003 17.0341 45.4611L12.0371 50.458C11.8568 50.6384 11.6222 50.7467 11.3877 50.7467Z" fill="#0A66C2"/>
<path d="M49.4152 48.239H21.1832C20.6781 48.239 20.2812 47.8421 20.2812 47.337C20.2812 46.8319 20.6781 46.4351 21.1832 46.4351H49.4152C49.9203 46.4351 50.3172 46.8319 50.3172 47.337C50.3172 47.8421 49.9023 48.239 49.4152 48.239Z" fill="#091316"/>
<path d="M11.3877 60.8126C11.1532 60.8126 10.9187 60.7224 10.7563 60.542L8.95238 58.738C8.60962 58.3772 8.60962 57.818 8.95238 57.4572C9.29513 57.0964 9.8724 57.0964 10.2332 57.4572L11.3877 58.6118L15.7533 54.2462C16.0961 53.8854 16.6733 53.8854 17.0341 54.2462C17.3769 54.607 17.3769 55.1662 17.0341 55.527L12.0371 60.524C11.8387 60.7404 11.6222 60.8126 11.3877 60.8126Z" fill="#0A66C2"/>
<path d="M49.4152 58.323H21.1832C20.6781 58.323 20.2812 57.9261 20.2812 57.421C20.2812 56.9159 20.6781 56.519 21.1832 56.519H49.4152C49.9203 56.519 50.3172 56.9159 50.3172 57.421C50.3172 57.9261 49.9023 58.323 49.4152 58.323Z" fill="#091316"/>
<path d="M11.3877 70.8971C11.1532 70.8971 10.9187 70.8069 10.7563 70.6265L8.95238 68.8225C8.60962 68.4617 8.60962 67.9025 8.95238 67.5417C9.29513 67.1809 9.8724 67.1809 10.2332 67.5417L11.3877 68.6962L15.7533 64.3307C16.0961 63.9699 16.6733 63.9699 17.0341 64.3307C17.3769 64.6914 17.3769 65.2507 17.0341 65.6115L12.0371 70.6084C11.8568 70.8069 11.6222 70.8971 11.3877 70.8971Z" fill="#0A66C2"/>
<path d="M49.4152 68.4075H21.1832C20.6781 68.4075 20.2812 68.0106 20.2812 67.5055C20.2812 67.0004 20.6781 66.6035 21.1832 66.6035H49.4152C49.9203 66.6035 50.3172 67.0004 50.3172 67.5055C50.3172 68.0106 49.9023 68.4075 49.4152 68.4075Z" fill="#091316"/>
</svg>
