<svg width="25" height="26" viewBox="0 0 25 26" fill="none" xmlns="http://www.w3.org/2000/svg">
<path d="M12.353 0.738486C11.3333 0.743222 10.3596 0.830185 9.50291 0.981796C6.97903 1.42769 6.52078 2.36095 6.52078 4.08209V6.35518H12.485V7.11285H6.52078H4.28245C2.5491 7.11285 1.03128 8.1547 0.556574 10.1367C0.00896654 12.4085 -0.015301 13.8261 0.556574 16.1983C0.980549 17.9639 1.993 19.222 3.72635 19.222H5.77698V16.4971C5.77698 14.5285 7.48025 12.792 9.50291 12.792H15.4602C17.1185 12.792 18.4423 11.4267 18.4423 9.76129V4.08209C18.4423 2.46578 17.0787 1.25157 15.4602 0.981796C14.4356 0.81124 13.3725 0.733749 12.353 0.738486ZM9.12752 2.56671C9.74358 2.56671 10.2467 3.07804 10.2467 3.7067C10.2467 4.33316 9.74358 4.83976 9.12752 4.83976C8.50926 4.83976 8.00838 4.33316 8.00838 3.7067C8.00838 3.07799 8.50926 2.56671 9.12752 2.56671Z" fill="url(#paint0_linear_920_79152)"/>
<path d="M19.1858 7.11338V9.76182C19.1858 11.8151 17.445 13.5433 15.4599 13.5433H9.50264C7.87085 13.5433 6.52051 14.9399 6.52051 16.5741V22.2533C6.52051 23.8696 7.92602 24.8203 9.50264 25.284C11.3906 25.8392 13.201 25.9395 15.4599 25.284C16.9614 24.8493 18.442 23.9744 18.442 22.2533V19.9802H12.4847V19.2225H18.442H21.4241C23.1575 19.2225 23.8034 18.0134 24.4062 16.1987C25.029 14.3304 25.0024 12.5338 24.4062 10.1371C23.9779 8.41152 23.1597 7.11328 21.4241 7.11328H19.1858V7.11338ZM15.8353 21.4956C16.4536 21.4956 16.9544 22.0022 16.9544 22.6287C16.9544 23.2574 16.4536 23.7687 15.8353 23.7687C15.2192 23.7687 14.7162 23.2574 14.7162 22.6287C14.7161 22.0022 15.2192 21.4956 15.8353 21.4956Z" fill="url(#paint1_linear_920_79152)"/>
<defs>
<linearGradient id="paint0_linear_920_79152" x1="-0.447824" y1="1.44925" x2="13.3081" y2="13.1802" gradientUnits="userSpaceOnUse">
<stop stop-color="#5A9FD4"/>
<stop offset="1" stop-color="#306998"/>
</linearGradient>
<linearGradient id="paint1_linear_920_79152" x1="18.4835" y1="20.4728" x2="13.5505" y2="13.5549" gradientUnits="userSpaceOnUse">
<stop stop-color="#FFD43B"/>
<stop offset="1" stop-color="#FFE873"/>
</linearGradient>
</defs>
</svg>
