<svg width="25" height="26" viewBox="0 0 25 26" fill="none" xmlns="http://www.w3.org/2000/svg">
<path d="M18.3835 22.7056C17.3444 22.7056 16.498 21.8497 16.498 20.7989C16.498 19.748 17.3444 18.8921 18.3835 18.8921C19.4226 18.8921 20.2689 19.748 20.2689 20.7989C20.2689 21.8497 19.4226 22.7056 18.3835 22.7056ZM18.3835 20.1633C18.0374 20.1633 17.755 20.4489 17.755 20.7989C17.755 21.1489 18.0374 21.4345 18.3835 21.4345C18.7296 21.4345 19.012 21.1489 19.012 20.7989C19.012 20.4489 18.7296 20.1633 18.3835 20.1633Z" fill="#091316"/>
<path d="M24.7745 8.11602L23.4606 9.2245C23.2821 9.37534 23.0231 9.37534 22.8447 9.2245L21.5307 8.11602C21.2642 7.89145 21.2282 7.4906 21.4503 7.22111C21.6723 6.95162 22.0695 6.91518 22.336 7.1406L23.1522 7.82958L23.9684 7.1406C24.2349 6.91518 24.6312 6.95162 24.8541 7.22111C25.0762 7.4906 25.041 7.89145 24.7745 8.11602Z" fill="#091316"/>
<path d="M19.1724 11.2424C19.5195 11.2424 19.8009 10.9578 19.8009 10.6068C19.8009 10.2558 19.5195 9.97119 19.1724 9.97119C18.8253 9.97119 18.5439 10.2558 18.5439 10.6068C18.5439 10.9578 18.8253 11.2424 19.1724 11.2424Z" fill="#091316"/>
<path d="M19.1724 13.674C19.5195 13.674 19.8009 13.3895 19.8009 13.0384C19.8009 12.6874 19.5195 12.4028 19.1724 12.4028C18.8253 12.4028 18.5439 12.6874 18.5439 13.0384C18.5439 13.3895 18.8253 13.674 19.1724 13.674Z" fill="#091316"/>
<path d="M23.7816 8.30949H22.5246C22.5246 5.38915 20.1749 3.01288 17.2873 3.01288H16.2398C15.8929 3.01288 15.6113 2.72814 15.6113 2.37729C15.6113 2.02644 15.8929 1.7417 16.2398 1.7417H17.2873C20.868 1.7417 23.7816 4.68831 23.7816 8.30949Z" fill="#091316"/>
<path d="M8.67286 12.9542C6.01563 12.9542 3.85449 10.7687 3.85449 8.08137C3.85449 5.39409 6.01563 3.2085 8.67286 3.2085C11.3301 3.2085 13.4912 5.39409 13.4912 8.08137C13.4912 10.7687 11.3301 12.9542 8.67286 12.9542ZM8.67286 4.47968C6.70864 4.47968 5.11146 6.09493 5.11146 8.08137C5.11146 10.0678 6.70864 11.6831 8.67286 11.6831C10.6371 11.6831 12.2343 10.0678 12.2343 8.08137C12.2343 6.09493 10.6371 4.47968 8.67286 4.47968Z" fill="#091316"/>
<path d="M14.3424 5.86734C13.4441 3.51735 11.1656 1.93769 8.67265 1.93769C6.19727 1.93769 3.99004 3.4343 3.05067 5.7504L1.88672 5.26735C3.02218 2.47243 5.68527 0.666504 8.67349 0.666504C11.681 0.666504 14.4304 2.57243 15.5147 5.40887L14.3424 5.86734Z" fill="#091316"/>
<path d="M14.5388 11.4863C13.2676 11.4863 12.2344 10.4414 12.2344 9.15579V7.46088C12.2344 6.17528 13.2676 5.13037 14.5388 5.13037C15.81 5.13037 16.8432 6.17528 16.8432 7.46088V9.15579C16.8432 10.4414 15.81 11.4863 14.5388 11.4863ZM14.5388 6.40156C13.9614 6.40156 13.4913 6.87698 13.4913 7.46088V9.15579C13.4913 9.73969 13.9614 10.2151 14.5388 10.2151C15.1162 10.2151 15.5863 9.73969 15.5863 9.15579V7.46088C15.5863 6.87698 15.1162 6.40156 14.5388 6.40156Z" fill="#091316"/>
<path d="M2.80737 11.4863C1.53615 11.4863 0.50293 10.4414 0.50293 9.15579V7.46088C0.50293 6.17528 1.53615 5.13037 2.80737 5.13037C4.07858 5.13037 5.1118 6.17528 5.1118 7.46088V9.15579C5.1118 10.4414 4.07858 11.4863 2.80737 11.4863ZM2.80737 6.40156C2.23 6.40156 1.75989 6.87698 1.75989 7.46088V9.15579C1.75989 9.73969 2.23 10.2151 2.80737 10.2151C3.38473 10.2151 3.85484 9.73969 3.85484 9.15579V7.46088C3.85484 6.87698 3.38473 6.40156 2.80737 6.40156Z" fill="#091316"/>
<path d="M21.5136 25.667H13.2025C12.5078 25.667 11.8576 25.3551 11.4176 24.811C10.9777 24.267 10.8059 23.5602 10.9442 22.872L11.9397 17.9263C12.1576 16.8458 13.1078 16.061 14.198 16.061H22.5091C23.2038 16.061 23.854 16.3729 24.294 16.917C24.7339 17.461 24.9057 18.1678 24.7674 18.8559L23.7719 23.8009C23.5541 24.8822 22.6038 25.667 21.5136 25.667ZM14.198 17.3322C13.702 17.3322 13.2704 17.689 13.1715 18.1797L12.176 23.1254C12.1132 23.4381 12.1919 23.7593 12.3914 24.0068C12.5908 24.2542 12.8866 24.3958 13.2025 24.3958H21.5136C22.0097 24.3958 22.4412 24.039 22.5401 23.5475L23.5356 18.6026C23.5985 18.2898 23.5197 17.9687 23.3203 17.7212C23.1208 17.4737 22.825 17.3322 22.5091 17.3322H14.198Z" fill="#091316"/>
<path d="M13.2011 25.6662H8.08356C7.73664 25.6662 7.45508 25.3815 7.45508 25.0306C7.45508 24.6798 7.73664 24.395 8.08356 24.395H13.2011V25.6662Z" fill="#091316"/>
<path d="M4.86207 25.6661H3.14255C2.24256 25.6661 1.38363 25.2746 0.786994 24.5907C0.190355 23.9076 -0.0878535 22.9975 0.0244354 22.0941L0.414932 18.939C0.497892 18.267 0.865764 17.6653 1.42302 17.2898L5.36737 14.6305C7.36846 13.2814 9.97625 13.2814 11.9773 14.6305L12.2941 14.8441C12.5832 15.039 12.6611 15.4331 12.4684 15.7254C12.2757 16.0178 11.886 16.0966 11.5969 15.9017L11.2801 15.6881C9.70055 14.6237 7.64332 14.6229 6.06373 15.6881L2.11854 18.3475C1.86547 18.5178 1.69871 18.7907 1.661 19.0958L1.27051 22.2508C1.20347 22.7932 1.37023 23.339 1.72804 23.75C2.0867 24.1593 2.60121 24.3949 3.14171 24.3949H4.86124C5.04978 24.3949 5.21738 24.3051 5.32212 24.1466C5.42687 23.989 5.44614 23.7975 5.37575 23.6212L4.06181 20.3551C3.93108 20.0297 4.08527 19.6593 4.40705 19.5271C4.728 19.3949 5.09503 19.5517 5.22492 19.8763L6.53887 23.1432C6.7668 23.7093 6.70143 24.35 6.36373 24.8568C6.02686 25.3636 5.46458 25.6661 4.8604 25.6661H4.86207Z" fill="#091316"/>
<path d="M8.67379 18.5532C7.70425 18.5532 6.83527 18.0481 6.34756 17.2007L5.16602 15.1473L6.25287 14.5083L7.43442 16.5617C7.69419 17.0125 8.15675 17.282 8.67379 17.282C9.19082 17.282 9.65338 17.0134 9.91315 16.5617L11.0939 14.5083L12.1807 15.1473L11 17.2007C10.5123 18.0481 9.64249 18.5532 8.67379 18.5532Z" fill="#091316"/>
</svg>
