<svg width="25" height="26" viewBox="0 0 25 26" fill="none" xmlns="http://www.w3.org/2000/svg">
<g clip-path="url(#clip0_920_79577)">
<path d="M24.2676 3.59668H20.483C20.1427 1.92715 18.6631 0.666992 16.8945 0.666992C15.126 0.666992 13.6464 1.92715 13.3061 3.59668H0.732422C0.32793 3.59668 0 3.92461 0 4.3291C0 4.73359 0.32793 5.06152 0.732422 5.06152H13.3061C13.6463 6.73105 15.126 7.99121 16.8945 7.99121C18.6631 7.99121 20.1427 6.73105 20.483 5.06152H24.2676C24.6721 5.06152 25 4.73359 25 4.3291C25 3.92461 24.6721 3.59668 24.2676 3.59668ZM16.8945 6.52637C15.6832 6.52637 14.6976 5.54102 14.6973 4.32974C14.6973 4.32954 14.6973 4.32935 14.6973 4.3291C14.6973 4.32886 14.6973 4.32866 14.6973 4.32847C14.6976 3.11719 15.6832 2.13184 16.8945 2.13184C18.1061 2.13184 19.0918 3.11753 19.0918 4.3291C19.0918 5.54067 18.1061 6.52637 16.8945 6.52637Z" fill="#091316"/>
<path d="M24.2676 12.4346H11.6939C11.3537 10.765 9.87402 9.50488 8.10547 9.50488C6.33691 9.50488 4.85732 10.765 4.51704 12.4346H0.732422C0.32793 12.4346 0 12.7625 0 13.167C0 13.5715 0.32793 13.8994 0.732422 13.8994H4.51704C4.85728 15.5689 6.33691 16.8291 8.10547 16.8291C9.87402 16.8291 11.3536 15.5689 11.6939 13.8994H24.2676C24.6721 13.8994 25 13.5715 25 13.167C25 12.7625 24.6721 12.4346 24.2676 12.4346ZM8.10547 15.3643C6.89409 15.3643 5.90855 14.3789 5.9082 13.1676C5.9082 13.1674 5.90825 13.1672 5.90825 13.167C5.90825 13.1667 5.9082 13.1666 5.9082 13.1664C5.90855 11.9551 6.89409 10.9697 8.10547 10.9697C9.31704 10.9697 10.3027 11.9554 10.3027 13.167C10.3027 14.3786 9.31704 15.3643 8.10547 15.3643Z" fill="#091316"/>
<path d="M24.2676 21.2725H20.483C20.1427 19.6029 18.6631 18.3428 16.8945 18.3428C15.126 18.3428 13.6464 19.6029 13.3061 21.2725H0.732422C0.32793 21.2725 0 21.6004 0 22.0049C0 22.4094 0.32793 22.7373 0.732422 22.7373H13.3061C13.6463 24.4068 15.126 25.667 16.8945 25.667C18.6631 25.667 20.1427 24.4068 20.483 22.7373H24.2676C24.6721 22.7373 25 22.4094 25 22.0049C25 21.6004 24.6721 21.2725 24.2676 21.2725ZM16.8945 24.2021C15.6832 24.2021 14.6976 23.2168 14.6973 22.0055C14.6973 22.0053 14.6973 22.0051 14.6973 22.0049C14.6973 22.0046 14.6973 22.0044 14.6973 22.0042C14.6976 20.793 15.6832 19.8076 16.8945 19.8076C18.1061 19.8076 19.0918 20.7933 19.0918 22.0049C19.0918 23.2165 18.1061 24.2021 16.8945 24.2021Z" fill="#091316"/>
</g>
<defs>
<clipPath id="clip0_920_79577">
<rect width="25" height="25" fill="white" transform="translate(0 0.666992)"/>
</clipPath>
</defs>
</svg>
