<svg width="28" height="26" viewBox="0 0 28 26" fill="none" xmlns="http://www.w3.org/2000/svg">
<path d="M26.6 4.83317H20.5333V2.98132C20.5317 1.70342 19.4881 0.668086 18.2 0.666504H9.8C8.51188 0.668086 7.46826 1.70342 7.46667 2.98132V4.83317H1.4C0.626855 4.83317 0 5.45505 0 6.22206V16.5275C0.00296224 17.1148 0.375977 17.6372 0.933333 17.8346V24.2776C0.933333 25.0446 1.56019 25.6665 2.33333 25.6665H25.6667C26.4398 25.6665 27.0667 25.0446 27.0667 24.2776V17.835C27.624 17.6374 27.9973 17.1148 28 16.5275V6.22206C28 5.45505 27.3731 4.83317 26.6 4.83317ZM8.4 2.98132C8.4 2.21431 9.02686 1.59243 9.8 1.59243H18.2C18.9731 1.59243 19.6 2.21431 19.6 2.98132V4.83317H18.6667V2.98132C18.6667 2.72565 18.4577 2.51836 18.2 2.51836H9.8C9.54228 2.51836 9.33333 2.72565 9.33333 2.98132V4.83317H8.4V2.98132ZM17.7333 4.83317H10.2667V3.44428H17.7333V4.83317ZM26.1333 24.2776C26.1333 24.5333 25.9244 24.7406 25.6667 24.7406H2.33333C2.07562 24.7406 1.86667 24.5333 1.86667 24.2776V17.9937L12.1333 19.3984V20.5739C12.1333 21.3409 12.7602 21.9628 13.5333 21.9628H14.4667C15.2398 21.9628 15.8667 21.3409 15.8667 20.5739V19.3984L26.1333 17.9937V24.2776ZM14.9333 20.5739C14.9333 20.8296 14.7244 21.0369 14.4667 21.0369H13.5333C13.2756 21.0369 13.0667 20.8296 13.0667 20.5739V17.7961C13.0667 17.5405 13.2756 17.3332 13.5333 17.3332H14.4667C14.7244 17.3332 14.9333 17.5405 14.9333 17.7961V20.5739ZM27.0667 16.5275C27.0669 16.7583 26.8958 16.9541 26.6654 16.9864L26.536 17.004L15.8667 18.4637V17.7961C15.8667 17.0291 15.2398 16.4072 14.4667 16.4072H13.5333C12.7602 16.4072 12.1333 17.0291 12.1333 17.7961V18.4637L1.33506 16.9864C1.10469 16.9543 0.933105 16.7585 0.933333 16.5275V6.22206C0.933333 5.96639 1.14229 5.7591 1.4 5.7591H26.6C26.8577 5.7591 27.0667 5.96639 27.0667 6.22206V16.5275Z" fill="#091316"/>
</svg>
