<svg width="27" height="27" viewBox="0 0 27 27" fill="none" xmlns="http://www.w3.org/2000/svg">
<path d="M15.3599 21.4206L12.3057 22.2827L12.8415 19.1577L23.0223 7.6814C23.6653 6.98097 24.737 6.92709 25.4336 7.51977C26.1302 8.16632 26.1838 9.24391 25.5943 9.94434L15.3599 21.4206Z" stroke="#091316" stroke-miterlimit="10" stroke-linecap="round" stroke-linejoin="round"/>
<path d="M13.5918 18.2412L16.1102 20.5041" stroke="#091316" stroke-miterlimit="10" stroke-linecap="round" stroke-linejoin="round"/>
<path d="M14.6641 17.0557L17.1825 19.3186" stroke="#091316" stroke-miterlimit="10" stroke-linecap="round" stroke-linejoin="round"/>
<path d="M23.9335 11.7219L21.415 9.45898" stroke="#091316" stroke-miterlimit="10" stroke-linecap="round" stroke-linejoin="round"/>
<path d="M22.7547 13.0696L20.2363 10.8066" stroke="#091316" stroke-miterlimit="10" stroke-linecap="round" stroke-linejoin="round"/>
<path d="M21.6832 14.2543V24.3836C21.6832 25.2996 20.9866 26 20.0757 26H2.6075C1.75017 26 1 25.2996 1 24.3836V2.61638C1 1.75431 1.69658 1 2.6075 1H20.0757C20.933 1 21.6832 1.70043 21.6832 2.61638V9.18965" stroke="#091316" stroke-miterlimit="10" stroke-linecap="round" stroke-linejoin="round"/>
<path d="M13.2168 13.5H15.0386" stroke="#091316" stroke-miterlimit="10" stroke-linecap="round" stroke-linejoin="round"/>
<path d="M3.67969 13.5H4.2691" stroke="#091316" stroke-miterlimit="10" stroke-linecap="round" stroke-linejoin="round"/>
<path d="M3.73242 16.625H12.145" stroke="#091316" stroke-miterlimit="10" stroke-linecap="round" stroke-linejoin="round"/>
<path d="M3.73242 19.6963H10.1624" stroke="#091316" stroke-miterlimit="10" stroke-linecap="round" stroke-linejoin="round"/>
<path d="M14.9854 22.8213H19.0041" stroke="#091316" stroke-miterlimit="10" stroke-linecap="round" stroke-linejoin="round"/>
<path d="M3.73242 22.8213H10.5911" stroke="#091316" stroke-miterlimit="10" stroke-linecap="round" stroke-linejoin="round"/>
<path d="M16.4316 4.23242H19.0036" stroke="#091316" stroke-miterlimit="10" stroke-linecap="round" stroke-linejoin="round"/>
<path d="M13.5918 4.23242H14.2884" stroke="#091316" stroke-miterlimit="10" stroke-linecap="round" stroke-linejoin="round"/>
<path d="M15.3604 7.30371H19.004" stroke="#091316" stroke-miterlimit="10" stroke-linecap="round" stroke-linejoin="round"/>
<path d="M14.5566 10.4287H19.0041" stroke="#091316" stroke-miterlimit="10" stroke-linecap="round" stroke-linejoin="round"/>
<path d="M12.0914 9.72811C11.9843 10.213 11.8235 10.6441 11.5556 11.0751L12.2522 11.991L11.4484 12.7992L10.5375 12.0988C10.1624 12.3682 9.68018 12.5298 9.19793 12.6376L9.03718 13.7691H7.91193L7.75118 12.6376C7.26893 12.5298 6.84026 12.3682 6.41159 12.0988L5.50067 12.7992L4.69692 11.991L5.39351 11.0751C5.12559 10.6979 4.96484 10.213 4.85767 9.72811L3.73242 9.56647V8.43501L4.85767 8.27337C4.96484 7.78846 5.12559 7.35742 5.39351 6.92639L4.69692 6.01044L5.50067 5.20225L6.41159 5.90268C6.78668 5.63328 7.26893 5.47165 7.75118 5.36389L7.91193 4.23242H9.03718L9.19793 5.36389C9.68018 5.47165 10.1088 5.63328 10.5375 5.90268L11.4484 5.20225L12.2522 6.01044L11.5556 6.92639C11.8235 7.30354 11.9843 7.78846 12.0914 8.27337L13.2167 8.43501V9.56647L12.0914 9.72811Z" stroke="#091316" stroke-miterlimit="10" stroke-linecap="round" stroke-linejoin="round"/>
<path d="M8.44726 10.2128C9.12791 10.2128 9.67968 9.658 9.67968 8.9736C9.67968 8.28919 9.12791 7.73438 8.44726 7.73438C7.76662 7.73438 7.21484 8.28919 7.21484 8.9736C7.21484 9.658 7.76662 10.2128 8.44726 10.2128Z" stroke="#091316" stroke-miterlimit="10" stroke-linecap="round" stroke-linejoin="round"/>
</svg>
