<svg width="23" height="26" viewBox="0 0 23 26" fill="none" xmlns="http://www.w3.org/2000/svg">
<path d="M19.454 0C19.8544 0.122531 20.2408 0.2691 20.5726 0.539373C21.2146 1.06292 21.5587 1.74065 21.5616 2.56085C21.5734 5.86685 21.5675 9.17285 21.5663 12.4789C21.5663 12.551 21.5933 12.6436 21.5165 12.6858C21.4315 12.7321 21.3858 12.6389 21.3307 12.5961C21.126 12.4378 20.9332 12.2625 20.718 12.1212C20.5445 12.0069 20.4841 11.875 20.4847 11.668C20.4911 8.72083 20.4888 5.77422 20.4893 2.82702C20.4893 2.65113 20.48 2.4776 20.4495 2.30406C20.3264 1.59584 19.7442 1.08637 19.0225 1.0635C18.8888 1.0594 18.7551 1.05998 18.6221 1.05998C13.3456 1.05998 8.06971 1.05998 2.79324 1.05998C2.5429 1.05998 2.29549 1.06174 2.05395 1.15379C1.48174 1.37305 1.09421 1.90246 1.08307 2.5157C1.07545 2.92492 1.07956 3.33356 1.07956 3.74278C1.07956 10.1291 1.0819 16.5159 1.07663 22.9022C1.07604 23.6198 1.35862 24.1381 2.0176 24.4406C2.2779 24.5602 2.55462 24.5467 2.82959 24.5467C8.06384 24.5479 13.2987 24.5508 18.5329 24.5397C18.8859 24.5391 19.1245 24.6124 19.2535 24.9571C19.3021 25.0879 19.3954 25.2022 19.4645 25.3259C19.5789 25.5311 19.556 25.5803 19.3156 25.6079C19.1169 25.6302 18.9164 25.646 18.7164 25.646C13.4236 25.6477 8.13068 25.6454 2.83779 25.6495C1.88803 25.6501 1.08542 25.3511 0.503836 24.5719C0.180798 24.1393 0.00139836 23.6491 0.00139836 23.1057C0.000225814 16.2351 -0.00153298 9.36398 0.00257094 2.49343C0.00315721 1.40413 0.806939 0.375802 1.85872 0.0809059C1.94666 0.0562824 2.03343 0.0269686 2.12078 0C7.89793 0 13.6762 0 19.454 0Z" fill="#091316"/>
<path d="M8.96322 6.67763C9.41758 6.83358 9.82211 7.00594 10.1733 7.28149C10.6464 7.65378 11.0416 8.08528 11.2444 8.66745C11.4197 9.17047 11.3283 9.38563 10.8305 9.58438C10.2008 9.83531 9.53191 9.88924 8.86707 9.92207C7.94193 9.9678 7.01503 9.95373 6.09869 9.78371C5.84366 9.73622 5.59332 9.67291 5.35236 9.57617C4.90269 9.39443 4.79774 9.17106 4.95604 8.70907C5.22162 7.93343 5.77037 7.4052 6.46452 7.00594C6.70196 6.86934 6.96285 6.78668 7.23195 6.66884C6.75824 6.26138 6.45807 5.77887 6.34961 5.17853C6.17314 4.20238 6.79635 3.27079 7.76195 3.08787C8.74396 2.90202 9.66617 3.51409 9.85201 4.49083C10.0044 5.29226 9.69607 5.94362 9.15024 6.50644C9.10393 6.5551 9.05175 6.59731 8.96322 6.67763ZM7.80123 6.95084C8.00525 7.12613 7.96011 7.3026 7.86982 7.50193C7.71504 7.84256 7.57551 8.19022 7.43715 8.53847C7.19736 9.14174 7.17215 8.93596 7.60893 9.39267C7.7127 9.50113 7.83054 9.59669 7.92376 9.71277C8.05684 9.87752 8.16354 9.83824 8.28783 9.70515C8.45258 9.52868 8.61966 9.35397 8.79789 9.19216C8.92687 9.07491 8.95677 8.96762 8.88232 8.80112C8.69647 8.3831 8.53524 7.95454 8.35584 7.53359C8.27259 7.33836 8.17937 7.15134 8.39336 6.95611C8.18934 6.98718 8.0029 6.98484 7.80123 6.95084Z" fill="#091316"/>
<path d="M17.349 12.1624C20.0054 12.1893 22.1588 14.3544 22.1171 16.9833C22.0749 19.6497 19.9884 21.7163 17.3789 21.7274C14.5935 21.7392 12.5661 19.5805 12.548 16.951C12.5298 14.3052 14.733 12.1354 17.349 12.1624ZM21.2606 16.9675C21.2846 14.7695 19.5317 12.9908 17.2862 13.0095C15.0232 13.0289 13.4139 14.8698 13.3981 16.8807C13.3811 19.091 15.083 20.8556 17.2763 20.8814C19.4941 20.9078 21.2366 19.1959 21.2606 16.9675Z" fill="#091316"/>
<path d="M15.7377 11.1748C15.6802 11.2926 15.5958 11.2897 15.5284 11.312C15.0013 11.4832 14.5047 11.7177 14.048 12.0325C13.9044 12.1316 13.7555 12.1773 13.5808 12.1773C10.9185 12.1744 8.25623 12.1761 5.59396 12.175C5.15659 12.175 4.94436 12.0384 4.90391 11.7493C4.86639 11.4761 4.99361 11.2715 5.25919 11.2006C5.36238 11.173 5.47318 11.1636 5.58047 11.1636C8.8853 11.1619 12.1901 11.1619 15.495 11.1625C15.5694 11.1619 15.6427 11.1695 15.7377 11.1748Z" fill="#091316"/>
<path d="M22.4734 23.458C22.4804 23.5524 22.4113 23.5765 22.355 23.6087C21.7775 23.9423 21.1983 24.2724 20.6231 24.6101C20.4906 24.688 20.4056 24.6892 20.3212 24.5409C19.8633 23.7371 19.4002 22.9357 18.9335 22.1366C18.8532 21.9988 18.8707 21.9179 19.0126 21.8376C19.593 21.5093 20.1693 21.1733 20.7462 20.8386C20.8465 20.7805 20.9292 20.7664 20.9972 20.8843C21.4803 21.7221 21.9645 22.5587 22.4476 23.3965C22.4605 23.4176 22.467 23.4422 22.4734 23.458Z" fill="#091316"/>
<path d="M8.93098 13.3119C10.0572 13.3119 11.184 13.3107 12.3103 13.3136C12.3953 13.3136 12.5125 13.2679 12.5571 13.3728C12.5929 13.4561 12.4996 13.5212 12.4586 13.5903C12.4117 13.6689 12.3384 13.7369 12.3097 13.8208C12.1678 14.2394 11.8758 14.3121 11.4596 14.3074C9.46567 14.2845 7.47116 14.298 5.47724 14.2986C5.1202 14.2986 4.90152 14.1203 4.89097 13.8237C4.88041 13.5282 5.11492 13.3148 5.47666 13.3136C6.6281 13.3101 7.77954 13.3125 8.93098 13.3119Z" fill="#091316"/>
<path d="M8.38547 15.463C9.354 15.463 10.3225 15.4625 11.2905 15.4636C11.5953 15.4642 11.6024 15.4748 11.5426 15.7779C11.5361 15.8107 11.525 15.8424 11.5185 15.8752C11.4071 16.4486 11.4071 16.4486 10.8115 16.4486C9.09194 16.4486 7.37181 16.4486 5.65226 16.4486C5.57722 16.4486 5.50218 16.4503 5.42713 16.4474C5.09472 16.4327 4.88307 16.2322 4.89187 15.9426C4.90007 15.6676 5.11524 15.4671 5.42948 15.466C6.41442 15.4613 7.39995 15.4642 8.38489 15.4642C8.38547 15.4636 8.38547 15.4636 8.38547 15.463Z" fill="#091316"/>
<path d="M16.228 22.7584C16.0973 22.8704 15.9935 22.844 15.8974 22.8446C14.8139 22.8463 13.7305 22.8469 12.6471 22.844C12.5228 22.8434 12.395 22.837 12.2759 22.8047C12.052 22.7443 11.9236 22.5901 11.9154 22.3521C11.9072 22.1199 12.0444 21.94 12.2718 21.8684C12.4348 21.8168 12.6025 21.8409 12.7684 21.8315C13.4819 21.7893 14.1643 21.8286 14.7934 22.2554C15.2032 22.5344 15.7103 22.6282 16.228 22.7584Z" fill="#091316"/>
<path d="M21.7811 25.6663C21.2892 25.6728 20.9832 25.5086 20.7352 25.2231C20.6384 25.1117 20.642 25.0285 20.7838 24.9476C21.3719 24.6146 21.9581 24.2774 22.5391 23.9327C22.7138 23.8289 22.7566 23.9345 22.8047 24.0605C23.0955 24.8297 22.5081 25.6652 21.7811 25.6663Z" fill="#091316"/>
<path d="M11.0582 18.5995C10.9474 18.5942 10.7803 18.6206 10.6197 18.5584C10.4057 18.4764 10.2667 18.2671 10.2908 18.056C10.3172 17.8233 10.4966 17.6468 10.734 17.621C10.7668 17.6175 10.8003 17.6157 10.8337 17.6181C11.0301 17.6315 11.3015 17.5272 11.407 17.6697C11.5694 17.8889 11.5483 18.2049 11.607 18.4793C11.6287 18.5813 11.5425 18.5989 11.4622 18.6001C11.3449 18.6007 11.2288 18.5995 11.0582 18.5995Z" fill="#091316"/>
</svg>
