<svg width="27" height="28" viewBox="0 0 27 28" fill="none" xmlns="http://www.w3.org/2000/svg">
<path d="M13.4061 4.09741C13.6994 4.09741 13.9372 3.85963 13.9372 3.56632V1.19759C13.9372 0.904284 13.6994 0.666504 13.4061 0.666504C13.1128 0.666504 12.875 0.904284 12.875 1.19759V3.56632C12.8751 3.85963 13.1128 4.09741 13.4061 4.09741Z" fill="#091316"/>
<path d="M26.3876 18.912L25.4494 17.9765C25.1156 17.6432 24.6708 17.4595 24.1968 17.4595C23.8938 17.4595 23.6028 17.5349 23.345 17.6762L21.5771 15.9103L21.6632 15.8243C22.3804 15.1057 22.3801 13.9379 21.6631 13.2216C21.4069 12.9649 21.0871 12.7937 20.7386 12.7217C20.7866 12.5561 20.8119 12.3826 20.8119 12.205C20.8119 11.7117 20.6202 11.2491 20.2733 10.9036C20.0171 10.6469 19.6974 10.4757 19.3489 10.4037C19.3968 10.2381 19.4221 10.0646 19.4221 9.88702C19.4221 9.39363 19.2305 8.9311 18.883 8.58511C18.6206 8.32302 18.298 8.15711 17.9593 8.0865C18.1405 7.46176 17.9857 6.75886 17.4942 6.26653C17.0851 5.85916 16.5299 5.68408 15.9949 5.74082L12.4915 5.07768C11.9572 4.97633 11.29 4.9093 10.8688 5.29347C10.8422 5.31773 10.8151 5.34563 10.7884 5.37669C10.1354 5.13864 9.37366 5.28039 8.85069 5.80278C8.50375 6.1493 8.31264 6.61168 8.31264 7.10474C8.31264 7.28235 8.3378 7.4558 8.38573 7.62149C8.03758 7.69347 7.71827 7.86444 7.46288 8.1203C7.11525 8.46651 6.92356 8.92836 6.92319 9.42084C6.92304 9.59887 6.9483 9.7729 6.99649 9.93901C6.64818 10.0108 6.32867 10.1815 6.07248 10.4374C5.72486 10.7846 5.53343 11.2472 5.53343 11.7401C5.53343 12.1175 5.64612 12.4771 5.85495 12.7809C5.59128 12.8703 5.34976 13.019 5.14752 13.221C4.4298 13.9379 4.42954 15.1057 5.14799 15.8254L5.23379 15.9109L3.4656 17.6758C2.80848 17.3665 1.99885 17.4824 1.45658 18.0239L0.5178 18.9601C0.183885 19.2936 5.27345e-05 19.7385 0 20.2127C0 20.687 0.183885 21.1319 0.5178 21.4655L1.6894 22.6356C1.89691 22.8429 2.2332 22.8427 2.44045 22.6352C2.64775 22.4277 2.64753 22.0914 2.44002 21.8842L1.26842 20.714C1.13543 20.5811 1.06218 20.4031 1.06218 20.2127C1.06218 20.0224 1.13543 19.8444 1.26811 19.7119L2.20694 18.7757C2.4415 18.5414 2.80052 18.5065 3.07315 18.6695C3.09235 18.6984 3.11455 18.7258 3.13997 18.7513C3.18548 18.7969 3.23742 18.8318 3.29258 18.8574L8.6764 24.2333C8.70198 24.2891 8.7371 24.3415 8.78293 24.3874C8.82754 24.4321 8.87843 24.4666 8.93243 24.492C9.04628 24.6208 9.1092 24.7852 9.1092 24.9606C9.1092 25.151 9.03595 25.3289 8.90295 25.4618L7.96507 26.3986C7.68795 26.6745 7.23718 26.6744 6.9609 26.3994L5.7893 25.2277C5.58189 25.0203 5.24566 25.0203 5.03825 25.2277C4.83085 25.4351 4.83085 25.7713 5.03825 25.9787L6.2107 27.1513C6.55579 27.495 7.00899 27.6667 7.4624 27.6667C7.91592 27.6667 8.36965 27.4947 8.71516 27.1507L9.65363 26.2133C9.98754 25.8798 10.1714 25.4349 10.1714 24.9606C10.1714 24.6221 10.0773 24.2988 9.90227 24.0201L11.8923 22.0325C11.8944 22.0303 11.8965 22.0282 11.8986 22.026C12.1265 21.7905 12.7611 21.8345 13.3747 21.8772C13.8107 21.9075 14.2968 21.9412 14.7718 21.8864L16.951 24.063C16.8098 24.3204 16.7344 24.611 16.7344 24.9136C16.7344 25.3874 16.9183 25.832 17.2522 26.1656L18.1908 27.1029C18.5245 27.4363 18.9693 27.6199 19.4433 27.6199C19.9172 27.6199 20.362 27.4363 20.6958 27.1029L26.388 21.4176C26.7219 21.0841 26.9058 20.6393 26.9058 20.165C26.9057 19.6907 26.7218 19.2459 26.3876 18.912ZM12.2938 6.1213L14.5976 6.55736L13.2186 7.93579C13.0053 7.83327 12.713 7.64206 12.3922 7.33525C11.9532 6.91527 11.6392 6.43038 11.6106 6.12794C11.6106 6.12778 11.6106 6.12763 11.6106 6.12747C11.6106 6.12742 11.6105 6.12736 11.6105 6.12731C11.6084 6.10558 11.6079 6.08823 11.6082 6.075C11.6776 6.05812 11.8621 6.0394 12.2938 6.1213ZM9.60126 6.5543C9.87031 6.28551 10.2883 6.25451 10.5923 6.46038C10.7646 7.18274 11.3808 7.83744 11.658 8.10269C11.8635 8.29929 12.5227 8.8887 13.1881 9.0507C13.2781 9.17974 13.3271 9.33357 13.3271 9.49588C13.3271 9.70498 13.2467 9.90046 13.1001 10.0469C12.954 10.1932 12.7582 10.2738 12.5487 10.2738C12.3392 10.2738 12.1434 10.1932 11.9966 10.0462L11.9966 10.0461L11.9963 10.0459L9.60121 7.65508C9.45519 7.50927 9.37477 7.31378 9.37477 7.10474C9.37482 6.89565 9.45524 6.70017 9.60126 6.5543ZM8.2135 8.87182C8.35963 8.72549 8.55522 8.64485 8.76437 8.64485C8.97377 8.64485 9.17 8.72564 9.31708 8.87256L11.2457 10.7973C11.5494 11.1015 11.5494 11.5965 11.2467 11.8996C11.0998 12.0459 10.9033 12.1265 10.6935 12.1265C10.4837 12.1265 10.2872 12.0459 10.1409 11.9002L10.1408 11.9002L8.67772 10.4374C8.67546 10.4351 8.67298 10.433 8.67066 10.4307L8.21292 9.97313C8.06606 9.82642 7.98521 9.63057 7.98537 9.42163C7.98558 9.21339 8.06616 9.01853 8.2135 8.87182ZM6.8231 11.1889C6.96934 11.0429 7.16535 10.9624 7.37513 10.9624C7.58317 10.9624 7.77749 11.0417 7.92309 11.1852L9.39069 12.6521C9.53703 12.7979 9.61766 12.9931 9.61766 13.202C9.61766 13.4107 9.53703 13.606 9.39011 13.7523C9.24393 13.8983 9.04813 13.9787 8.83872 13.9787C8.629 13.9787 8.43256 13.8981 8.28617 13.7523L7.75413 13.2209C7.75403 13.2208 7.75387 13.2207 7.75376 13.2206L6.82316 12.2911C6.67645 12.1445 6.59566 11.9488 6.59566 11.7399C6.59566 11.5312 6.67645 11.3354 6.8231 11.1889ZM5.89814 13.9725C6.04501 13.8258 6.24128 13.745 6.4508 13.745C6.66026 13.745 6.85649 13.8258 7.0033 13.9724L7.53607 14.5045C7.68247 14.6503 7.76304 14.8455 7.76304 15.0544C7.76304 15.2632 7.68241 15.4584 7.53497 15.6053C7.38884 15.7517 7.19304 15.8323 6.98357 15.8323C6.77406 15.8323 6.57826 15.7517 6.43108 15.6043L6.36437 15.5378C6.36347 15.5369 6.36278 15.536 6.36194 15.5351C6.36094 15.5342 6.35988 15.5333 6.35888 15.5324L5.89867 15.074C5.59497 14.7696 5.59471 14.2756 5.89814 13.9725ZM16.721 20.0084C16.5138 19.8008 16.1775 19.8007 15.97 20.0079L15.4975 20.4798C15.0485 20.9288 14.235 20.8723 13.4482 20.8177C12.5939 20.7583 11.7104 20.6971 11.1387 21.284L9.18255 23.2378L4.29074 18.3532L6.02191 16.6251C6.30805 16.8005 6.63822 16.8945 6.98368 16.8945C7.47722 16.8945 7.94002 16.7032 8.2857 16.3569C8.63369 16.0103 8.82538 15.5478 8.82538 15.0544C8.82538 15.0498 8.82506 15.0453 8.82506 15.0407C8.82965 15.0408 8.83424 15.041 8.83883 15.041C9.33168 15.041 9.79411 14.8503 10.1403 14.5046C10.4883 14.158 10.6799 13.6954 10.6799 13.2021C10.6799 13.1975 10.6796 13.1929 10.6796 13.1884C10.6843 13.1884 10.6889 13.1887 10.6936 13.1887C11.1863 13.1887 11.649 12.9981 11.9975 12.6511C12.3592 12.2888 12.5382 11.8117 12.5347 11.3357C12.5395 11.3357 12.5442 11.336 12.549 11.336C13.0425 11.3359 13.5052 11.1447 13.8514 10.7978C14.1984 10.4513 14.3895 9.98895 14.3895 9.49588C14.3895 9.15105 14.2957 8.82141 14.1209 8.53585L15.6383 7.01916C15.7513 6.90657 15.8907 6.8359 16.0369 6.80674C16.0527 6.80505 16.0683 6.80252 16.0838 6.79946C16.3182 6.76714 16.5644 6.83949 16.7437 7.01805C17.0474 7.32227 17.0474 7.81724 16.7448 8.12036L16.2827 8.58057C16.2812 8.5821 16.2796 8.58347 16.278 8.585L15.7458 9.11635C15.5382 9.3236 15.538 9.65989 15.7453 9.8674C15.9527 10.075 16.2889 10.0751 16.4963 9.86787L16.9603 9.40455C16.9604 9.40444 16.9605 9.40434 16.9606 9.40423L17.0308 9.33436C17.3353 9.03261 17.8287 9.03324 18.1329 9.33705C18.2793 9.48281 18.3599 9.67808 18.3599 9.88691C18.3599 10.0957 18.2793 10.291 18.1318 10.4379L17.667 10.9036C17.6669 10.9036 17.6669 10.9037 17.6668 10.9038L17.1346 11.4338C16.9268 11.6408 16.9261 11.9771 17.1331 12.1849C17.3401 12.3927 17.6763 12.3933 17.8842 12.1864L18.4188 11.6539C18.5649 11.5075 18.7607 11.427 18.9702 11.427C19.1797 11.427 19.3755 11.5075 19.5227 11.655C19.6691 11.8008 19.7497 11.9961 19.7497 12.2049C19.7497 12.4137 19.6691 12.609 19.5219 12.7556L18.5953 13.6825C18.388 13.8899 18.388 14.2262 18.5954 14.4335C18.6992 14.5372 18.835 14.589 18.9709 14.589C19.1069 14.589 19.2428 14.5371 19.3465 14.4334L19.8006 13.9791C19.8032 13.9766 19.806 13.9745 19.8085 13.9719C19.9547 13.8255 20.1505 13.7449 20.3599 13.7449C20.5695 13.7449 20.7653 13.8255 20.9119 13.9724C21.2153 14.2755 21.215 14.7696 20.9119 15.0732L20.4502 15.5344C20.4501 15.5346 20.4499 15.5347 20.4497 15.5349C20.4495 15.535 20.4494 15.5352 20.4492 15.5354L19.7164 16.2673C19.5089 16.4746 19.5087 16.8109 19.7159 17.0184C19.8197 17.1222 19.9557 17.1742 20.0917 17.1742C20.2275 17.1742 20.3634 17.1224 20.467 17.0189L20.8255 16.6609L22.5434 18.3768L17.652 23.2622L15.8994 21.5118C16.0216 21.4332 16.1385 21.3408 16.2483 21.231L16.7205 20.7594C16.9281 20.5522 16.9283 20.2159 16.721 20.0084ZM25.6373 20.6661L19.9451 26.3514C19.8119 26.4844 19.6337 26.5577 19.4432 26.5577C19.2527 26.5577 19.0745 26.4844 18.9413 26.3514L18.0028 25.414C17.8698 25.2812 17.7965 25.1035 17.7965 24.9136C17.7965 24.7238 17.8698 24.546 18.0028 24.4132L23.695 18.7279C23.8282 18.5949 24.0064 18.5216 24.1969 18.5216C24.3874 18.5216 24.5656 18.5949 24.6991 18.7282L25.6373 19.6638C25.7703 19.7966 25.8436 19.9745 25.8436 20.1649C25.8435 20.3553 25.7703 20.5333 25.6373 20.6661Z" fill="#091316"/>
<path d="M6.35387 3.64948C6.45754 3.75294 6.59328 3.80462 6.72902 3.80462C6.86508 3.80462 7.00118 3.75262 7.10491 3.64868C7.31211 3.44107 7.31179 3.10483 7.10417 2.89764L5.16892 0.96624C4.96136 0.759046 4.62507 0.759309 4.41788 0.966978C4.21069 1.17459 4.211 1.51083 4.41862 1.71802L6.35387 3.64948Z" fill="#091316"/>
<path d="M20.0828 3.8046C20.2186 3.8046 20.3545 3.75282 20.4581 3.6493L22.3919 1.71784C22.5994 1.5106 22.5996 1.17431 22.3923 0.9668C22.1851 0.75929 21.8489 0.759079 21.6413 0.966378L19.7075 2.89783C19.5 3.10508 19.4998 3.44137 19.7071 3.64888C19.8108 3.75271 19.9468 3.8046 20.0828 3.8046Z" fill="#091316"/>
<path d="M3.26564 23.5113C3.06003 23.7205 3.06287 24.0567 3.27207 24.2624L3.2736 24.2638C3.3768 24.3653 3.5108 24.4158 3.64475 24.4158C3.78222 24.4158 3.9197 24.3626 4.02385 24.2567C4.22947 24.0475 4.22583 23.7105 4.01668 23.5049C3.80759 23.2993 3.47135 23.3022 3.26564 23.5113Z" fill="#091316"/>
<path d="M18.0197 19.2432C18.1005 19.2432 18.1825 19.2248 18.2594 19.1861C18.5213 19.054 18.6265 18.7346 18.4945 18.4727C18.3624 18.2108 18.0429 18.1056 17.7811 18.2377L17.7782 18.2392C17.5163 18.3713 17.4126 18.6899 17.5446 18.9518C17.6378 19.1367 17.8254 19.2432 18.0197 19.2432Z" fill="#091316"/>
</svg>
