<svg width="21" height="25" viewBox="0 0 21 25" fill="none" xmlns="http://www.w3.org/2000/svg">
<path d="M0.833447 8.29736C0.742676 8.20649 0.616699 8.1543 0.488281 8.1543C0.359863 8.1543 0.233936 8.20654 0.143066 8.29736C0.0521973 8.38818 0 8.51416 0 8.64258C0 8.771 0.0521973 8.89697 0.143066 8.98774C0.233887 9.07861 0.359863 9.13086 0.488281 9.13086C0.616699 9.13086 0.742676 9.07861 0.833447 8.98774C0.924316 8.89697 0.976562 8.771 0.976562 8.64258C0.976562 8.51416 0.924316 8.38818 0.833447 8.29736Z" fill="#091316"/>
<path d="M19.2383 0H9.35874C9.08911 0 8.87046 0.218652 8.87046 0.488281C8.87046 0.75791 9.08911 0.976562 9.35874 0.976562H19.2383C19.5075 0.976562 19.7266 1.19561 19.7266 1.46484V23.5352C19.7266 23.8044 19.5075 24.0234 19.2383 24.0234H1.46484C1.19561 24.0234 0.976562 23.8044 0.976562 23.5352V10.4655C0.976562 10.1958 0.75791 9.9772 0.488281 9.9772C0.218652 9.9772 0 10.1958 0 10.4655V23.5352C0 24.3429 0.657129 25 1.46484 25H19.2383C20.046 25 20.7031 24.3429 20.7031 23.5352V1.46484C20.7031 0.657129 20.046 0 19.2383 0Z" fill="#091316"/>
<path d="M10.3518 1.95312C10.0195 1.95312 9.68565 1.97852 9.35938 2.02852C9.09283 2.06943 8.90987 2.3186 8.95074 2.58516C8.99161 2.85171 9.24093 3.03442 9.50738 2.9938C9.78487 2.95122 10.069 2.92969 10.3518 2.92969C13.3942 2.92969 15.8694 5.40488 15.8694 8.44731C15.8694 9.79839 15.381 11.0373 14.5718 11.9976C14.2138 11.3819 13.7247 10.8508 13.1311 10.4388C12.7847 10.1984 12.4125 10.0065 12.0228 9.86445C12.4675 9.42974 12.7443 8.82393 12.7443 8.15439V7.67832C12.7443 6.35898 11.6711 5.28569 10.3518 5.28569C9.03248 5.28569 7.95919 6.35898 7.95919 7.67832V8.15439C7.95919 8.82393 8.23595 9.42974 8.68072 9.86445C8.29112 10.0065 7.9189 10.1984 7.57242 10.4388C6.97598 10.8528 6.48497 11.3869 6.12647 12.0063C5.50992 11.2736 5.07896 10.3725 4.91036 9.36714C4.86578 9.10127 4.61378 8.92188 4.34806 8.96636C4.08209 9.01094 3.90265 9.2627 3.94723 9.52866C4.1983 11.0257 4.9755 12.396 6.1357 13.3871C7.30909 14.3895 8.8064 14.9416 10.3517 14.9416C13.9326 14.9416 16.8459 12.0283 16.8459 8.44736C16.8459 4.86646 13.9327 1.95312 10.3518 1.95312ZM8.93575 7.67827C8.93575 6.89746 9.571 6.26221 10.3518 6.26221C11.1325 6.26221 11.7678 6.89746 11.7678 7.67827V8.15435C11.7678 8.93511 11.1325 9.57036 10.3518 9.57036C9.571 9.57036 8.93575 8.93511 8.93575 8.15435V7.67827ZM10.3518 13.9649C9.02979 13.9649 7.80763 13.5033 6.85108 12.7207C7.50675 11.39 8.84713 10.5469 10.3518 10.5469C11.8533 10.5469 13.1911 11.3866 13.8483 12.7124C12.8958 13.4947 11.6776 13.9649 10.3518 13.9649Z" fill="#091316"/>
<path d="M14.8613 19.4336H7.92773C7.65811 19.4336 7.43945 19.6522 7.43945 19.9219C7.43945 20.1915 7.65811 20.4102 7.92773 20.4102H14.8613C15.131 20.4102 15.3496 20.1915 15.3496 19.9219C15.3496 19.6522 15.131 19.4336 14.8613 19.4336Z" fill="#091316"/>
<path d="M6.18701 16.8423C6.09619 16.7514 5.97021 16.6992 5.8418 16.6992C5.71338 16.6992 5.5874 16.7515 5.49658 16.8423C5.40576 16.9331 5.35352 17.0591 5.35352 17.1875C5.35352 17.3164 5.40581 17.4419 5.49658 17.5327C5.5874 17.6235 5.71338 17.6758 5.8418 17.6758C5.97021 17.6758 6.09619 17.6235 6.18701 17.5327C6.27832 17.4419 6.33008 17.3159 6.33008 17.1875C6.33008 17.0591 6.27832 16.9331 6.18701 16.8423Z" fill="#091316"/>
<path d="M6.18701 19.5767C6.09619 19.4858 5.9707 19.4336 5.8418 19.4336C5.71338 19.4336 5.5874 19.4858 5.49658 19.5767C5.40576 19.6675 5.35352 19.7935 5.35352 19.9219C5.35352 20.0507 5.40581 20.1763 5.49658 20.267C5.5874 20.3579 5.71338 20.4102 5.8418 20.4102C5.97021 20.4102 6.09619 20.3579 6.18701 20.267C6.27832 20.1763 6.33008 20.0508 6.33008 19.9219C6.33008 19.7935 6.27832 19.6675 6.18701 19.5767Z" fill="#091316"/>
<path d="M14.8613 16.6992H7.92773C7.65811 16.6992 7.43945 16.9179 7.43945 17.1875C7.43945 17.4571 7.65811 17.6758 7.92773 17.6758H14.8613C15.131 17.6758 15.3496 17.4571 15.3496 17.1875C15.3496 16.9179 15.131 16.6992 14.8613 16.6992Z" fill="#091316"/>
<path d="M5.74364 2.81387C5.55287 2.62324 5.24379 2.62324 5.05306 2.81387L3.46293 4.404L2.91952 3.8606C2.72875 3.66997 2.41967 3.66997 2.22894 3.8606C2.03827 4.05132 2.03827 4.3605 2.22894 4.55117L3.11761 5.43984C3.21298 5.53516 3.33788 5.58286 3.46288 5.58286C3.58788 5.58286 3.71278 5.53516 3.80819 5.43989L5.74364 3.50444C5.93431 3.31372 5.93431 3.00454 5.74364 2.81387Z" fill="#091316"/>
<path d="M4.00391 0C1.79614 0 0 1.79614 0 4.00391C0 6.21167 1.79614 8.00781 4.00391 8.00781C6.21167 8.00781 8.00781 6.21167 8.00781 4.00391C8.00781 1.79614 6.21167 0 4.00391 0ZM4.00391 7.03125C2.33462 7.03125 0.976562 5.67319 0.976562 4.00391C0.976562 2.33462 2.33462 0.976562 4.00391 0.976562C5.67319 0.976562 7.03125 2.33462 7.03125 4.00391C7.03125 5.67319 5.67319 7.03125 4.00391 7.03125Z" fill="#091316"/>
</svg>
